<svg id="Capa_1" data-name="Capa 1" xmlns="http://www.w3.org/2000/svg" viewBox="0 0 1097.35 91.88"><defs><style>.cls-1{fill:none;stroke:#000;stroke-miterlimit:10;}.cls-2{fill:#46b8e0;}</style></defs><title>graphic</title><path d="M141.19,5.6c25.86,0,55.26,16.49,64.2,36,4.48,9.79,3.19,19.2-3.73,27.22-5.56,6.45-14.06,11.36-25.25,14.6a96.72,96.72,0,0,1-26.86,3.77,98.3,98.3,0,0,1-38.24-7.74c-4.64-2-10.31-4.91-13.08-10C96.14,65.63,95.93,61,95.9,57c0-5.34.17-13.28,2.55-20.72C104.78,16.49,120,5.6,141.19,5.6m0-1c-19,0-36.44,8.69-43.69,31.37-2.16,6.76-2.66,13.94-2.6,21,0,4.44.33,9,2.45,13,2.78,5.1,8.22,8.14,13.57,10.43a98.71,98.71,0,0,0,38.63,7.82,97.7,97.7,0,0,0,27.14-3.81c9.66-2.79,19.16-7.29,25.73-14.9,23.91-27.71-22-64.89-61.23-64.89Z" transform="translate(-94.9 -3.77)"/><path class="cls-1" d="M115.57,33.82A12.11,12.11,0,0,0,124,34c2.32-3.41-.06-8.89-4.14-9.52s-8,3.87-6.82,7.82l5.44.25" transform="translate(-94.9 -3.77)"/><path class="cls-1" d="M136.09,46.92c-.93,5-1.62,10.84,1.88,14.52,3.91,4.1,11.29,2.77,15-1.48s4.61-10.32,4.44-16" transform="translate(-94.9 -3.77)"/><path class="cls-1" d="M184.75,45.44a11.57,11.57,0,0,0-1.3,8.34,7.29,7.29,0,0,0,9.32-10.48,8.55,8.55,0,0,0-11.48,3.33" transform="translate(-94.9 -3.77)"/><path class="cls-1" d="M289.64,30.89c6.94-7.48,2.15-21.26-7.4-24.87s-20.78,1.41-26.81,9.64-7.7,18.91-7.59,29.11c0,4.06.45,8.4,3,11.6,3.2,4.07,8.85,5.12,14,5.89,20.15,3,42.13,5.69,59.71-4.6C332.57,52.93,339,45.81,347,40.93s18.82-7.14,26.36-1.61c10.52,7.73,9.85,26.79,22.18,31.09,7.89,2.76,16.38-2.82,21.36-9.54s8.07-14.83,14-20.74c12-12.05,34.79-10.18,44.68,3.65,3.09,4.32,5.26,9.73,10,12.22,4.3,2.27,9.54,1.44,14.22.12a80.34,80.34,0,0,0,23.41-10.93c9.3-6.34,18.12-15,29.35-15.67,25.3-1.54,38.27,36.74,63.62,37.37,27.08.68,38-40.74,64.76-44.93,15-2.34,28.93,8.27,38.41,20.09s16.89,25.73,29.17,34.61a49.26,49.26,0,0,0,26,9.21c8.83.48,17.93-1.55,25.24-6.54C813.28,70,818.47,50.2,811.17,35.4c21.69-.69,37.39,19.21,54.05,33.12a115.71,115.71,0,0,0,71.94,26.62c8.24.11,17-.85,23.55-5.84,10.46-8,11.81-22.91,12.27-36,.21-5.92.37-12.07-2-17.51-3-7-9.71-11.72-16.35-15.55C947.1,15.83,939,12,930.25,11.27s-18.11,2-23.55,8.85-5.52,18,1.11,23.69,19.14,2.53,20.87-6" transform="translate(-94.9 -3.77)"/><path class="cls-1" d="M1118.7,14.8c-3.44,0-7,.19-10.08,1.72-2.83,1.4-5,3.85-6.89,6.38a66.37,66.37,0,0,0-13.2,40.55c0,2.78.31,5.7,1.81,8s4,3.77,6.45,5.06a139.52,139.52,0,0,0,62,15.93c11.06.21,23.86-1.93,29.41-11.5,2.09-3.59,2.83-7.79,3.25-11.92C1195.69,26.82,1153.25,14.37,1118.7,14.8Z" transform="translate(-94.9 -3.77)"/><path class="cls-1" d="M1119,36.81c-1.43-4-8.8-2.63-8.75,1.59a18.27,18.27,0,0,0,14.28,4.48,6.18,6.18,0,0,0,3.21-1.15c2.82-2.34.27-7.45-3.34-8.15s-7.11,1.34-10.21,3.3" transform="translate(-94.9 -3.77)"/><path class="cls-1" d="M1136.28,54a33.39,33.39,0,0,0-.86,15.26,11.3,11.3,0,0,0,14.64-16.09" transform="translate(-94.9 -3.77)"/><path class="cls-2" d="M1178.32,52.5a27.52,27.52,0,0,0-14-1c-2.36,3.45-.69,8.73,3,10.73s8.57.89,11.52-2.07c1.83-1.83,3-4.61,2.09-7s-4.66-3.48-6.21-1.41" transform="translate(-94.9 -3.77)"/><polygon class="cls-2" points="456.98 71.87 448.3 63.09 436.14 65.27 441.81 54.3 435.98 43.41 448.16 45.41 456.71 36.5 458.58 48.71 469.7 54.09 458.67 59.63 456.98 71.87"/><polygon class="cls-2" points="304.34 21.47 293.74 21.34 287.62 30.01 284.46 19.88 274.33 16.74 282.98 10.61 282.84 0 291.35 6.34 301.39 2.92 297.99 12.97 304.34 21.47"/><polygon class="cls-2" points="671.54 32.99 676.76 21.7 670.42 11.01 682.76 12.49 690.97 3.15 693.38 15.35 704.79 20.27 693.95 26.33 692.79 38.71 683.67 30.26 671.54 32.99"/><polygon class="cls-2" points="901.94 60.35 906.5 52.83 902.88 44.81 911.44 46.82 917.95 40.91 918.68 49.67 926.32 54.03 918.21 57.43 916.43 66.04 910.68 59.39 901.94 60.35"/></svg>